<?xml version="1.0" standalone="no"?><!DOCTYPE svg PUBLIC "-//W3C//DTD SVG 1.1//EN" "http://www.w3.org/Graphics/SVG/1.1/DTD/svg11.dtd"><svg width="100%" height="100%" viewBox="0 0 126 150" version="1.1" xmlns="http://www.w3.org/2000/svg" xmlns:xlink="http://www.w3.org/1999/xlink" xml:space="preserve" style="fill-rule:evenodd;clip-rule:evenodd;stroke-linejoin:round;stroke-miterlimit:1.41421;"><text id="logo__item--business" x="77.957px" y="145.074px" style="font-family:Arial;font-size:23.247px;fill:#2c3e50;">Hkit</text><g id="logo__item--logo_0"><path d="M42.882,57.32c4.246,0 10.33,2.286 13.522,5.077l7.543,6.59c3.19,2.79 5.803,8.55 5.803,12.796l0,26.26c0,4.245 3.46,7.717 7.704,7.717l38.34,0c4.234,0 7.706,-3.473 7.706,-7.718l0,-38.328c0,-4.244 -3.472,-7.717 -7.705,-7.717l-27.715,0c-4.245,0 -10.332,-2.285 -13.523,-5.077l-9.93,-8.7c-3.206,-2.804 -5.82,-8.564 -5.82,-12.81l0,-24.135c0,-4.246 -3.473,-7.735 -7.717,-7.735l-38.327,0c-4.245,0 -7.72,3.488 -7.72,7.735l0,38.325c0,4.23 3.475,7.72 7.72,7.72l30.12,0l-0.001,0Z" style="fill:#3498db;fill-rule:nonzero;"/><path d="M11.22,92.663c-4.247,0 -7.72,3.475 -7.72,7.72l0,7.792c0,4.26 3.475,7.718 7.72,7.718l7.806,0c4.23,0 7.705,-3.458 7.705,-7.718l0,-1.232c0,-4.247 2.212,-9.65 4.915,-12.008c2.7,-2.36 8.37,-4.29 12.617,-4.29l2.715,0c4.232,0 7.705,-3.475 7.705,-7.72l0,-7.79c0,-4.248 -3.473,-7.72 -7.705,-7.72l-7.792,0c-4.245,0 -7.72,3.473 -7.72,7.72l0,3.01c0,4.247 -1.75,9.25 -3.888,11.12c-2.14,1.87 -7.362,3.398 -11.61,3.398l-4.748,0l0,0Z" style="fill:#e74c3c;fill-rule:nonzero;"/><path d="M113.732,21.278c0,-4.23 -3.46,-7.704 -7.705,-7.704l-20.35,0c-4.247,0 -7.72,3.475 -7.72,7.704l0,20.35c0,4.247 3.474,7.735 7.72,7.735l20.35,0c4.245,0 7.705,-3.488 7.705,-7.734l0,-20.352l0,0.001Z" style="fill:#2980b9;fill-rule:nonzero;"/></g></svg>